<?xml version="1.0" encoding="UTF-8" standalone="no"?>
<!DOCTYPE svg PUBLIC "-//W3C//DTD SVG 1.1//EN"
 "http://www.w3.org/Graphics/SVG/1.1/DTD/svg11.dtd">
<!-- Generated by graphviz version 14.0.2 (20251019.1705)
 -->
<!-- Pages: 1 -->
<svg width="3044pt" height="367pt"
 viewBox="0.00 0.00 3044.00 367.00" xmlns="http://www.w3.org/2000/svg" xmlns:xlink="http://www.w3.org/1999/xlink">
<g id="graph0" class="graph" transform="scale(1 1) rotate(0) translate(4 363.25)">
<polygon fill="white" stroke="none" points="-4,4 -4,-363.25 3040.25,-363.25 3040.25,4 -4,4"/>
<!-- A -->
<g id="node1" class="node">
<title>A</title>
<path fill="#e8f0fe" stroke="black" d="M241,-115.5C241,-115.5 27.75,-115.5 27.75,-115.5 21.75,-115.5 15.75,-109.5 15.75,-103.5 15.75,-103.5 15.75,-80.5 15.75,-80.5 15.75,-74.5 21.75,-68.5 27.75,-68.5 27.75,-68.5 241,-68.5 241,-68.5 247,-68.5 253,-74.5 253,-80.5 253,-80.5 253,-103.5 253,-103.5 253,-109.5 247,-115.5 241,-115.5"/>
<text xml:space="preserve" text-anchor="middle" x="134.38" y="-98.2" font-family="Segoe UI" font-size="14.00">A) (2) Global config</text>
<text xml:space="preserve" text-anchor="middle" x="134.38" y="-78.7" font-family="Segoe UI" font-size="14.00">Paths, constants, PARAMS container</text>
</g>
<!-- B -->
<g id="node2" class="node">
<title>B</title>
<path fill="#d2e3fc" stroke="black" d="M528.12,-227C528.12,-227 347.12,-227 347.12,-227 341.12,-227 335.12,-221 335.12,-215 335.12,-215 335.12,-153 335.12,-153 335.12,-147 341.12,-141 347.12,-141 347.12,-141 528.12,-141 528.12,-141 534.12,-141 540.12,-147 540.12,-153 540.12,-153 540.12,-215 540.12,-215 540.12,-221 534.12,-227 528.12,-227"/>
<text xml:space="preserve" text-anchor="middle" x="437.62" y="-209.7" font-family="Segoe UI" font-size="14.00">B) (3) IHFC ingest + distances</text>
<text xml:space="preserve" text-anchor="middle" x="437.62" y="-190.2" font-family="Segoe UI" font-size="14.00">• Load/clean IHFC</text>
<text xml:space="preserve" text-anchor="middle" x="437.62" y="-170.7" font-family="Segoe UI" font-size="14.00">• dist_gem_km / dist_pb_km</text>
<text xml:space="preserve" text-anchor="middle" x="437.62" y="-151.2" font-family="Segoe UI" font-size="14.00">• dist_min_km = min(GEM, PB)</text>
</g>
<!-- A&#45;&gt;B -->
<g id="edge1" class="edge">
<title>A&#45;&gt;B</title>
<path fill="none" stroke="black" d="M253.3,-99.83C272.51,-99.83 286.25,-99.83 286.25,-99.83 286.25,-99.83 286.25,-169.67 286.25,-169.67 286.25,-169.67 323.47,-169.67 323.47,-169.67"/>
<polygon fill="black" stroke="black" points="323.47,-173.17 333.47,-169.67 323.47,-166.17 323.47,-173.17"/>
</g>
<!-- N1 -->
<g id="node14" class="node">
<title>N1</title>
<polygon fill="#fafafa" stroke="black" points="564.5,-115.5 304.75,-115.5 304.75,-68.5 570.5,-68.5 570.5,-109.5 564.5,-115.5"/>
<polyline fill="none" stroke="black" points="564.5,-115.5 564.5,-109.5"/>
<polyline fill="none" stroke="black" points="570.5,-109.5 564.5,-109.5"/>
<text xml:space="preserve" text-anchor="middle" x="437.62" y="-98.2" font-family="Segoe UI" font-size="14.00">N1) (83) Environment + config snapshot</text>
<text xml:space="preserve" text-anchor="middle" x="437.62" y="-78.7" font-family="Segoe UI" font-size="14.00">→ environment_versions.json</text>
</g>
<!-- A&#45;&gt;N1 -->
<g id="edge15" class="edge">
<title>A&#45;&gt;N1</title>
<path fill="none" stroke="black" d="M253.36,-84.17C253.36,-84.17 292.92,-84.17 292.92,-84.17"/>
<polygon fill="black" stroke="black" points="292.92,-87.67 302.92,-84.17 292.92,-80.67 292.92,-87.67"/>
</g>
<!-- B2 -->
<g id="node3" class="node">
<title>B2</title>
<path fill="#d7ccc8" stroke="black" d="M819.75,-236.75C819.75,-236.75 618.5,-236.75 618.5,-236.75 612.5,-236.75 606.5,-230.75 606.5,-224.75 606.5,-224.75 606.5,-143.25 606.5,-143.25 606.5,-137.25 612.5,-131.25 618.5,-131.25 618.5,-131.25 819.75,-131.25 819.75,-131.25 825.75,-131.25 831.75,-137.25 831.75,-143.25 831.75,-143.25 831.75,-224.75 831.75,-224.75 831.75,-230.75 825.75,-236.75 819.75,-236.75"/>
<text xml:space="preserve" text-anchor="middle" x="719.12" y="-219.45" font-family="Segoe UI" font-size="14.00">B2) (3) IHFC filters / QC (protocol)</text>
<text xml:space="preserve" text-anchor="middle" x="719.12" y="-199.95" font-family="Segoe UI" font-size="14.00">• numeric validity (q, lat/lon)</text>
<text xml:space="preserve" text-anchor="middle" x="719.12" y="-180.45" font-family="Segoe UI" font-size="14.00">• physical bounds + unit sanity</text>
<text xml:space="preserve" text-anchor="middle" x="719.12" y="-160.95" font-family="Segoe UI" font-size="14.00">• missing geometry / duplicates</text>
<text xml:space="preserve" text-anchor="middle" x="719.12" y="-141.45" font-family="Segoe UI" font-size="14.00">• optional: site&#45;collapse</text>
</g>
<!-- B&#45;&gt;B2 -->
<g id="edge3" class="edge">
<title>B&#45;&gt;B2</title>
<path fill="none" stroke="black" d="M540.45,-184C540.45,-184 594.62,-184 594.62,-184"/>
<polygon fill="black" stroke="black" points="594.62,-187.5 604.62,-184 594.62,-180.5 594.62,-187.5"/>
</g>
<!-- D -->
<g id="node5" class="node">
<title>D</title>
<path fill="#bbdefb" stroke="black" d="M1153,-217.25C1153,-217.25 879.75,-217.25 879.75,-217.25 873.75,-217.25 867.75,-211.25 867.75,-205.25 867.75,-205.25 867.75,-162.75 867.75,-162.75 867.75,-156.75 873.75,-150.75 879.75,-150.75 879.75,-150.75 1153,-150.75 1153,-150.75 1159,-150.75 1165,-156.75 1165,-162.75 1165,-162.75 1165,-205.25 1165,-205.25 1165,-211.25 1159,-217.25 1153,-217.25"/>
<text xml:space="preserve" text-anchor="middle" x="1016.38" y="-199.95" font-family="Segoe UI" font-size="14.00">D) (5) Robust heat&#45;flow threshold (DECISION)</text>
<text xml:space="preserve" text-anchor="middle" x="1016.38" y="-180.45" font-family="Segoe UI" font-size="14.00">• IQR&#45;based tail diagnostics</text>
<text xml:space="preserve" text-anchor="middle" x="1016.38" y="-160.95" font-family="Segoe UI" font-size="14.00">• Derive Q_THR_RELEV (not assumed)</text>
</g>
<!-- B2&#45;&gt;D -->
<g id="edge4" class="edge">
<title>B2&#45;&gt;D</title>
<path fill="none" stroke="black" d="M831.93,-184C831.93,-184 855.77,-184 855.77,-184"/>
<polygon fill="black" stroke="black" points="855.77,-187.5 865.77,-184 855.77,-180.5 855.77,-187.5"/>
</g>
<!-- C -->
<g id="node4" class="node">
<title>C</title>
<path fill="#c5cae9" stroke="black" d="M256.75,-227C256.75,-227 12,-227 12,-227 6,-227 0,-221 0,-215 0,-215 0,-153 0,-153 0,-147 6,-141 12,-141 12,-141 256.75,-141 256.75,-141 262.75,-141 268.75,-147 268.75,-153 268.75,-153 268.75,-215 268.75,-215 268.75,-221 262.75,-227 256.75,-227"/>
<text xml:space="preserve" text-anchor="middle" x="134.38" y="-209.7" font-family="Segoe UI" font-size="14.00">C) (4) Tectonic geometry inputs (parallel)</text>
<text xml:space="preserve" text-anchor="middle" x="134.38" y="-190.2" font-family="Segoe UI" font-size="14.00">• GEM global active faults</text>
<text xml:space="preserve" text-anchor="middle" x="134.38" y="-170.7" font-family="Segoe UI" font-size="14.00">• PB2002 plate boundaries</text>
<text xml:space="preserve" text-anchor="middle" x="134.38" y="-151.2" font-family="Segoe UI" font-size="14.00">(harmonized loaders)</text>
</g>
<!-- C&#45;&gt;B -->
<g id="edge2" class="edge">
<title>C&#45;&gt;B</title>
<path fill="none" stroke="black" d="M269.15,-198.33C269.15,-198.33 323.16,-198.33 323.16,-198.33"/>
<polygon fill="black" stroke="black" points="323.16,-201.83 333.16,-198.33 323.16,-194.83 323.16,-201.83"/>
</g>
<!-- E -->
<g id="node6" class="node">
<title>E</title>
<path fill="#a5d6a7" stroke="black" d="M1484.75,-227C1484.75,-227 1213,-227 1213,-227 1207,-227 1201,-221 1201,-215 1201,-215 1201,-153 1201,-153 1201,-147 1207,-141 1213,-141 1213,-141 1484.75,-141 1484.75,-141 1490.75,-141 1496.75,-147 1496.75,-153 1496.75,-153 1496.75,-215 1496.75,-215 1496.75,-221 1490.75,-227 1484.75,-227"/>
<text xml:space="preserve" text-anchor="middle" x="1348.88" y="-209.7" font-family="Segoe UI" font-size="14.00">E) (7–9) Protocol decision + canonical set</text>
<text xml:space="preserve" text-anchor="middle" x="1348.88" y="-190.2" font-family="Segoe UI" font-size="14.00">• Cutoff sensitivity (derive DIST_CUTOFF_KM)</text>
<text xml:space="preserve" text-anchor="middle" x="1348.88" y="-170.7" font-family="Segoe UI" font-size="14.00">• Canonical intraplate dataset + Fig. 1</text>
<text xml:space="preserve" text-anchor="middle" x="1348.88" y="-151.2" font-family="Segoe UI" font-size="14.00">• Apply: dist_min_km ≥ DIST_CUTOFF_KM</text>
</g>
<!-- D&#45;&gt;E -->
<g id="edge5" class="edge">
<title>D&#45;&gt;E</title>
<path fill="none" stroke="black" d="M1165.12,-184C1165.12,-184 1189,-184 1189,-184"/>
<polygon fill="black" stroke="black" points="1189,-187.5 1199,-184 1189,-180.5 1189,-187.5"/>
</g>
<!-- F -->
<g id="node7" class="node">
<title>F</title>
<path fill="#e1bee7" stroke="black" d="M1824.75,-359.25C1824.75,-359.25 1544.75,-359.25 1544.75,-359.25 1538.75,-359.25 1532.75,-353.25 1532.75,-347.25 1532.75,-347.25 1532.75,-304.75 1532.75,-304.75 1532.75,-298.75 1538.75,-292.75 1544.75,-292.75 1544.75,-292.75 1824.75,-292.75 1824.75,-292.75 1830.75,-292.75 1836.75,-298.75 1836.75,-304.75 1836.75,-304.75 1836.75,-347.25 1836.75,-347.25 1836.75,-353.25 1830.75,-359.25 1824.75,-359.25"/>
<text xml:space="preserve" text-anchor="middle" x="1684.75" y="-341.95" font-family="Segoe UI" font-size="14.00">F) (26, 27–30) Distance&#45;model QA &amp; sensitivity</text>
<text xml:space="preserve" text-anchor="middle" x="1684.75" y="-322.45" font-family="Segoe UI" font-size="14.00">• ULTRA sensitivity (50k/100k/200k)</text>
<text xml:space="preserve" text-anchor="middle" x="1684.75" y="-302.95" font-family="Segoe UI" font-size="14.00">• AEQD recompute &amp; compare (delta maps)</text>
</g>
<!-- E&#45;&gt;F -->
<g id="edge6" class="edge">
<title>E&#45;&gt;F</title>
<path fill="none" stroke="black" d="M1496.97,-212C1519.95,-212 1536.25,-212 1536.25,-212 1536.25,-212 1536.25,-280.9 1536.25,-280.9"/>
<polygon fill="black" stroke="black" points="1532.75,-280.9 1536.25,-290.9 1539.75,-280.9 1532.75,-280.9"/>
</g>
<!-- G -->
<g id="node8" class="node">
<title>G</title>
<path fill="#c8e6c9" stroke="black" d="M1815.75,-268C1815.75,-268 1553.75,-268 1553.75,-268 1547.75,-268 1541.75,-262 1541.75,-256 1541.75,-256 1541.75,-194 1541.75,-194 1541.75,-188 1547.75,-182 1553.75,-182 1553.75,-182 1815.75,-182 1815.75,-182 1821.75,-182 1827.75,-188 1827.75,-194 1827.75,-194 1827.75,-256 1827.75,-256 1827.75,-262 1821.75,-268 1815.75,-268"/>
<text xml:space="preserve" text-anchor="middle" x="1684.75" y="-250.7" font-family="Segoe UI" font-size="14.00">G) (40, 59–62) Clustering (protocol&#45;aligned)</text>
<text xml:space="preserve" text-anchor="middle" x="1684.75" y="-231.2" font-family="Segoe UI" font-size="14.00">• KMeans (k=2..6; main)</text>
<text xml:space="preserve" text-anchor="middle" x="1684.75" y="-211.7" font-family="Segoe UI" font-size="14.00">• Ward / DBSCAN sanity checks</text>
<text xml:space="preserve" text-anchor="middle" x="1684.75" y="-192.2" font-family="Segoe UI" font-size="14.00">• Label alignment &amp; panels</text>
</g>
<!-- E&#45;&gt;G -->
<g id="edge7" class="edge">
<title>E&#45;&gt;G</title>
<path fill="none" stroke="black" d="M1497.17,-197C1497.17,-197 1529.83,-197 1529.83,-197"/>
<polygon fill="black" stroke="black" points="1529.83,-200.5 1539.83,-197 1529.83,-193.5 1529.83,-200.5"/>
</g>
<!-- J -->
<g id="node11" class="node">
<title>J</title>
<path fill="#fff59d" stroke="black" d="M2155,-197C2155,-197 1902,-197 1902,-197 1896,-197 1890,-191 1890,-185 1890,-185 1890,-123 1890,-123 1890,-117 1896,-111 1902,-111 1902,-111 2155,-111 2155,-111 2161,-111 2167,-117 2167,-123 2167,-123 2167,-185 2167,-185 2167,-191 2161,-197 2155,-197"/>
<text xml:space="preserve" text-anchor="middle" x="2028.5" y="-179.7" font-family="Segoe UI" font-size="14.00">J) (41, 46, 73–75) Regressions + spatial QA</text>
<text xml:space="preserve" text-anchor="middle" x="2028.5" y="-160.2" font-family="Segoe UI" font-size="14.00">• Global/regional + per&#45;cluster models</text>
<text xml:space="preserve" text-anchor="middle" x="2028.5" y="-140.7" font-family="Segoe UI" font-size="14.00">• Robust/quantile</text>
<text xml:space="preserve" text-anchor="middle" x="2028.5" y="-121.2" font-family="Segoe UI" font-size="14.00">• Moran&#39;s I on residuals</text>
</g>
<!-- E&#45;&gt;J -->
<g id="edge10" class="edge">
<title>E&#45;&gt;J</title>
<path fill="none" stroke="black" d="M1497.18,-168.33C1497.18,-168.33 1878.26,-168.33 1878.26,-168.33"/>
<polygon fill="black" stroke="black" points="1878.26,-171.83 1888.26,-168.33 1878.26,-164.83 1878.26,-171.83"/>
</g>
<!-- Q1 -->
<g id="node13" class="node">
<title>Q1</title>
<path fill="#f3e5f5" stroke="black" d="M1824.38,-96.25C1824.38,-96.25 1545.12,-96.25 1545.12,-96.25 1539.12,-96.25 1533.12,-90.25 1533.12,-84.25 1533.12,-84.25 1533.12,-41.75 1533.12,-41.75 1533.12,-35.75 1539.12,-29.75 1545.12,-29.75 1545.12,-29.75 1824.38,-29.75 1824.38,-29.75 1830.38,-29.75 1836.38,-35.75 1836.38,-41.75 1836.38,-41.75 1836.38,-84.25 1836.38,-84.25 1836.38,-90.25 1830.38,-96.25 1824.38,-96.25"/>
<text xml:space="preserve" text-anchor="middle" x="1684.75" y="-78.95" font-family="Segoe UI" font-size="14.00">QA) (78) Seismic fragmentation tests (QA A–C)</text>
<text xml:space="preserve" text-anchor="middle" x="1684.75" y="-59.45" font-family="Segoe UI" font-size="14.00">• Shallow seismicity overlap controls</text>
<text xml:space="preserve" text-anchor="middle" x="1684.75" y="-39.95" font-family="Segoe UI" font-size="14.00">• Produces intraplate_clean subset</text>
</g>
<!-- E&#45;&gt;Q1 -->
<g id="edge13" class="edge">
<title>E&#45;&gt;Q1</title>
<path fill="none" stroke="black" d="M1497,-154.67C1521.58,-154.67 1539.25,-154.67 1539.25,-154.67 1539.25,-154.67 1539.25,-108.13 1539.25,-108.13"/>
<polygon fill="black" stroke="black" points="1542.75,-108.13 1539.25,-98.13 1535.75,-108.13 1542.75,-108.13"/>
</g>
<!-- H -->
<g id="node9" class="node">
<title>H</title>
<path fill="#c8e6c9" stroke="black" d="M2117.88,-288.25C2117.88,-288.25 1939.12,-288.25 1939.12,-288.25 1933.12,-288.25 1927.12,-282.25 1927.12,-276.25 1927.12,-276.25 1927.12,-233.75 1927.12,-233.75 1927.12,-227.75 1933.12,-221.75 1939.12,-221.75 1939.12,-221.75 2117.88,-221.75 2117.88,-221.75 2123.88,-221.75 2129.88,-227.75 2129.88,-233.75 2129.88,-233.75 2129.88,-276.25 2129.88,-276.25 2129.88,-282.25 2123.88,-288.25 2117.88,-288.25"/>
<text xml:space="preserve" text-anchor="middle" x="2028.5" y="-270.95" font-family="Segoe UI" font-size="14.00">H) (60) k selection (DECISION)</text>
<text xml:space="preserve" text-anchor="middle" x="2028.5" y="-251.45" font-family="Segoe UI" font-size="14.00">• Silhouette (↑), CH (↑), DB (↓)</text>
<text xml:space="preserve" text-anchor="middle" x="2028.5" y="-231.95" font-family="Segoe UI" font-size="14.00">• k=2 vs k=4 comparison</text>
</g>
<!-- G&#45;&gt;H -->
<g id="edge8" class="edge">
<title>G&#45;&gt;H</title>
<path fill="none" stroke="black" d="M1828.04,-244.88C1828.04,-244.88 1915.26,-244.88 1915.26,-244.88"/>
<polygon fill="black" stroke="black" points="1915.26,-248.38 1925.26,-244.88 1915.26,-241.38 1915.26,-248.38"/>
</g>
<!-- G&#45;&gt;J -->
<g id="edge11" class="edge">
<title>G&#45;&gt;J</title>
<path fill="none" stroke="black" d="M1828.04,-189.5C1828.04,-189.5 1878.06,-189.5 1878.06,-189.5"/>
<polygon fill="black" stroke="black" points="1878.06,-193 1888.06,-189.5 1878.06,-186 1878.06,-193"/>
</g>
<!-- I -->
<g id="node10" class="node">
<title>I</title>
<path fill="#ffe082" stroke="black" d="M2420,-307.75C2420,-307.75 2232.25,-307.75 2232.25,-307.75 2226.25,-307.75 2220.25,-301.75 2220.25,-295.75 2220.25,-295.75 2220.25,-214.25 2220.25,-214.25 2220.25,-208.25 2226.25,-202.25 2232.25,-202.25 2232.25,-202.25 2420,-202.25 2420,-202.25 2426,-202.25 2432,-208.25 2432,-214.25 2432,-214.25 2432,-295.75 2432,-295.75 2432,-301.75 2426,-307.75 2420,-307.75"/>
<text xml:space="preserve" text-anchor="middle" x="2326.12" y="-290.45" font-family="Segoe UI" font-size="14.00">I) (63–66) Stability &amp; agreement</text>
<text xml:space="preserve" text-anchor="middle" x="2326.12" y="-270.95" font-family="Segoe UI" font-size="14.00">• ARI/NMI across methods</text>
<text xml:space="preserve" text-anchor="middle" x="2326.12" y="-251.45" font-family="Segoe UI" font-size="14.00">• Agreement index maps</text>
<text xml:space="preserve" text-anchor="middle" x="2326.12" y="-231.95" font-family="Segoe UI" font-size="14.00">• Bootstrap stability (ARI)</text>
<text xml:space="preserve" text-anchor="middle" x="2326.12" y="-212.45" font-family="Segoe UI" font-size="14.00">• Silhouette profiles</text>
</g>
<!-- H&#45;&gt;I -->
<g id="edge9" class="edge">
<title>H&#45;&gt;I</title>
<path fill="none" stroke="black" d="M2130.09,-255C2130.09,-255 2208.4,-255 2208.4,-255"/>
<polygon fill="black" stroke="black" points="2208.4,-258.5 2218.4,-255 2208.4,-251.5 2208.4,-258.5"/>
</g>
<!-- K -->
<g id="node12" class="node">
<title>K</title>
<path fill="#e6ee9c" stroke="black" d="M2737.5,-307.75C2737.5,-307.75 2480,-307.75 2480,-307.75 2474,-307.75 2468,-301.75 2468,-295.75 2468,-295.75 2468,-214.25 2468,-214.25 2468,-208.25 2474,-202.25 2480,-202.25 2480,-202.25 2737.5,-202.25 2737.5,-202.25 2743.5,-202.25 2749.5,-208.25 2749.5,-214.25 2749.5,-214.25 2749.5,-295.75 2749.5,-295.75 2749.5,-301.75 2743.5,-307.75 2737.5,-307.75"/>
<text xml:space="preserve" text-anchor="middle" x="2608.75" y="-290.45" font-family="Segoe UI" font-size="14.00">K) (67–72) Regional/continental coherence</text>
<text xml:space="preserve" text-anchor="middle" x="2608.75" y="-270.95" font-family="Segoe UI" font-size="14.00">• Silhouette by region</text>
<text xml:space="preserve" text-anchor="middle" x="2608.75" y="-251.45" font-family="Segoe UI" font-size="14.00">• p&#45;values + FDR&#45;BH</text>
<text xml:space="preserve" text-anchor="middle" x="2608.75" y="-231.95" font-family="Segoe UI" font-size="14.00">• Agreement by continent</text>
<text xml:space="preserve" text-anchor="middle" x="2608.75" y="-212.45" font-family="Segoe UI" font-size="14.00">• Distance summaries by cluster</text>
</g>
<!-- I&#45;&gt;K -->
<g id="edge12" class="edge">
<title>I&#45;&gt;K</title>
<path fill="none" stroke="black" d="M2432.17,-255C2432.17,-255 2456.1,-255 2456.1,-255"/>
<polygon fill="black" stroke="black" points="2456.1,-258.5 2466.1,-255 2456.1,-251.5 2456.1,-258.5"/>
</g>
<!-- N2 -->
<g id="node15" class="node">
<title>N2</title>
<polygon fill="#fafafa" stroke="black" points="3030.25,-278.5 2785.5,-278.5 2785.5,-231.5 3036.25,-231.5 3036.25,-272.5 3030.25,-278.5"/>
<polyline fill="none" stroke="black" points="3030.25,-278.5 3030.25,-272.5"/>
<polyline fill="none" stroke="black" points="3036.25,-272.5 3030.25,-272.5"/>
<text xml:space="preserve" text-anchor="middle" x="2910.88" y="-261.2" font-family="Segoe UI" font-size="14.00">N2) (85) Final reproducibility manifest</text>
<text xml:space="preserve" text-anchor="middle" x="2910.88" y="-241.7" font-family="Segoe UI" font-size="14.00">→ FINAL_PIPELINE_FREEZE_*.json</text>
</g>
<!-- K&#45;&gt;N2 -->
<g id="edge16" class="edge">
<title>K&#45;&gt;N2</title>
<path fill="none" stroke="black" d="M2749.64,-255C2749.64,-255 2773.62,-255 2773.62,-255"/>
<polygon fill="black" stroke="black" points="2773.62,-258.5 2783.62,-255 2773.62,-251.5 2773.62,-258.5"/>
</g>
<!-- N3 -->
<g id="node16" class="node">
<title>N3</title>
<polygon fill="#fafafa" stroke="black" points="2178.25,-86 1872.75,-86 1872.75,0 2184.25,0 2184.25,-80 2178.25,-86"/>
<polyline fill="none" stroke="black" points="2178.25,-86 2178.25,-80"/>
<polyline fill="none" stroke="black" points="2184.25,-80 2178.25,-80"/>
<text xml:space="preserve" text-anchor="middle" x="2028.5" y="-68.7" font-family="Segoe UI" font-size="14.00">N3) (79–81) Final intraplate outliers deliverables</text>
<text xml:space="preserve" text-anchor="middle" x="2028.5" y="-49.2" font-family="Segoe UI" font-size="14.00">• Maps (Robinson)</text>
<text xml:space="preserve" text-anchor="middle" x="2028.5" y="-29.7" font-family="Segoe UI" font-size="14.00">• Summary stats + scatter</text>
<text xml:space="preserve" text-anchor="middle" x="2028.5" y="-10.2" font-family="Segoe UI" font-size="14.00">• Uses Q_THR_RELEV &amp; DIST_CUTOFF_KM</text>
</g>
<!-- Q1&#45;&gt;N3 -->
<g id="edge14" class="edge">
<title>Q1&#45;&gt;N3</title>
<path fill="none" stroke="black" d="M1836.77,-57.88C1836.77,-57.88 1861,-57.88 1861,-57.88"/>
<polygon fill="black" stroke="black" points="1861,-61.38 1871,-57.88 1861,-54.38 1861,-61.38"/>
</g>
</g>
</svg>
